<svg xmlns="http://www.w3.org/2000/svg" xmlns:xlink="http://www.w3.org/1999/xlink" viewBox="0 0 75.106 75.106" fill="#fff" fill-rule="evenodd" stroke="#000" stroke-linecap="round" stroke-linejoin="round"><use xlink:href="#E" x=".553" y=".553"/><defs><linearGradient id="A" x1="50.00%" y1="100.00%" x2="50.00%" y2="-0.00%"><stop offset="0%" stop-color="#7ab5d7"/><stop offset="18.7%" stop-color="#75b3d6"/><stop offset="41.3%" stop-color="#65add4"/><stop offset="66%" stop-color="#45a3d0"/><stop offset="91.9%" stop-color="#0097cc"/><stop offset="100%" stop-color="#0093ca"/></linearGradient><linearGradient id="B" x1="-0.00%" y1="50.00%" x2="100.00%" y2="50.00%"><stop offset="0%" stop-color="#3e4546"/><stop offset="12%" stop-color="#464d4e"/><stop offset="70.5%" stop-color="#727678"/><stop offset="100%" stop-color="#86898b"/></linearGradient><linearGradient id="C" x1="0.00%" y1="50.00%" x2="100.00%" y2="50.00%"><stop offset="0%" stop-color="#c7eafb"/><stop offset="63.6%" stop-color="#eef9fe"/><stop offset="100%" stop-color="#fff"/></linearGradient><path id="D" d="M0 36.881c0 20.35 16.515 36.863 36.876 36.863s36.868-16.513 36.868-36.863C73.744 16.513 57.232 0 36.876 0S0 16.513 0 36.881z"/></defs><symbol id="E" overflow="visible"><g stroke-linejoin="miter"><g fill-rule="nonzero"><use xlink:href="#D" fill="url(#A)" stroke-width="1.04"/><g stroke-width=".787"><path d="M36.877 73.744A36.72 36.72 0 0 0 61.99 63.85L37.194 26.374l-18.417.567-5.095 1.884L2.178 49.372c5.123 14.206 18.725 24.372 34.699 24.372z" stroke="#58595b" fill="url(#B)"/><path d="M71.775 48.752c-.687-.549-.651-1.906-1.985-3.221s-4.217-.292-4.217-.292.006-2.436-2.037-3.467-3.242.412-4.399.593-1.236-4.067-5.08-2.017c-.363.195-9.648-13.509-9.96-13.365-.555.259 8.727 14.314 8.4 14.611-.716.66-.927 2.858-.927 2.858l-19.883-35.2-5.12 8.626-3.752-5.362-4.611 8.232-4.96 8.929c1.249 1.735 2.996 4.794 4.426 4.29s2.649-5.082 4.042-4.855 2.87 7.253 4.045 7.282 2.907-3.086 4.043-3.236 3.262 4.499 4.852 4.042 2.989-4.476 4.853-4.042c1.197.277 8.243 15.855 7.275 16.175-.712.237-8.411-11.157-8.892-10.514s5.613 9.699 4.851 10.514-6.974-7.742-7.278-7.278c-.212.326 2.292 4.127 4.047 8.399.282.686-2.067 1.316-1.682 3.697s3.356 3.936 3.288 4.419-3.526 1.272-3.53 3.948 2.358 3.465 2.989 3.938.159 2.993 2.992 3.781 3.061-1.695 4.564-1.674a17.18 17.18 0 0 1 5.574 1.111c8.438-4.338 14.98-11.831 18.072-20.921z" stroke="#aee2fa" fill="url(#C)"/></g></g><use xlink:href="#D" fill="none" stroke-width="1.106"/></g></symbol></svg>